<?xml version="1.0" encoding="UTF-8"?>
<svg id="Layer_1" data-name="Layer 1" xmlns="http://www.w3.org/2000/svg" width="2000" height="2000" xmlns:xlink="http://www.w3.org/1999/xlink" viewBox="0 0 2000 2000">
  <defs>
    <linearGradient id="linear-gradient" x1="1034.77" y1="1472.87" x2="1566.49" y2="551.91" gradientUnits="userSpaceOnUse">
      <stop offset="0" stop-color="#f8d175"/>
      <stop offset=".24" stop-color="#f2a85d"/>
      <stop offset=".41" stop-color="#ef9150"/>
      <stop offset=".65" stop-color="#b56634"/>
      <stop offset=".76" stop-color="#995227"/>
      <stop offset=".97" stop-color="#6075a9"/>
      <stop offset="1" stop-color="#3a8cff"/>
    </linearGradient>
    <linearGradient id="linear-gradient-2" x1="529.6" y1="1460.4" x2="1081.04" y2="505.28" xlink:href="#linear-gradient"/>
  </defs>
  <path d="M1514.47,1233.04c-3.77-4.21-7.64-8.34-11.53-12.44-36.76-38.7-76.18-74.89-117.87-108.23-15.63-12.5-31.58-24.6-47.58-36.63-8-6.02-16.01-12.02-23.9-18.18-7.87-6.15-15.63-12.47-22.64-19.58-6.76-6.86-12.9-14.61-16.11-23.69-3.01-8.52-3.27-18-.65-26.64,3.75-12.39,12.93-22.35,22.5-31.06,12.28-11.17,25.66-21.06,38.96-30.99,16.05-11.99,32.02-24.08,47.67-36.58,41.74-33.31,81.24-69.43,118.13-108.05,9.21-9.64,18.27-19.45,26.33-30.07,12.11-15.95,21.92-33.72,28.3-52.71,8.5-25.3,10.8-52.66,6.64-79.02-2.6-16.48-7.7-32.58-15.23-47.48-18.09-35.78-50.13-63.74-87.02-79.45-18.58-7.91-38.41-12.88-58.52-14.66-9.93-.88-19.91-.98-29.88-1.03-9.89-.05-19.77-.05-29.66-.04l-219.14.08c-.55,0-1,.45-1,1l-.03,209.61c0,10.2,0,20.4.14,30.6.11,8.01.32,16.06-.84,23.98-1.1,7.55-3.42,14.88-6.16,22-4.75,12.37-10.8,24.25-18.14,35.27-11.08,16.64-25.12,31.31-41.26,43.1-20.58,15.03-44.45,25.32-69.24,31.23-24.71,5.89-50.33,7.5-75.7,6.06-.02,0-.03.03,0,.03,29.12,5.74,56.52,20.88,75.94,43.32,19.48,22.51,30.61,52.36,29.38,82.1-1.16,28.1-13.29,55.4-32.52,75.92-19.17,20.46-45.14,34.18-72.64,39.66-.02,0-.02.04,0,.03,28.05-1.62,56.44.56,83.5,8.11,27.14,7.57,52.92,20.65,73.97,39.39,12.36,11.01,23.03,23.9,31.73,37.98,5.2,8.41,9.7,17.25,13.49,26.39,3.37,8.12,6.19,16.52,7.5,25.21,1.31,8.69,1.09,17.53.98,26.32-.13,10.09-.13,20.19-.13,30.28,0,69.73.02,139.46.02,209.19h1c.33,0,.67,0,1,0h1c.33,0,.67,0,1,0h1c.33,0,.67,0,1,0h1c.33,0,.67,0,1,0h1c.33,0,.67,0,1,0h1c.33,0,.67,0,1,0h1c.33,0,.67,0,1,0h1c.33,0,.67,0,1,0h1c.33,0,.67,0,1,0h1c.33,0,.67,0,1,0h1c.33,0,.67,0,1,0h1c.33,0,.67,0,1,0h1c.33,0,.67,0,1,0h1c.33,0,.67,0,1,0h1c.33,0,.67,0,1,0h1c.33,0,.67,0,1,0h1c.33,0,.67,0,1,0h1c.33,0,.67,0,1,0h1c.33,0,.67,0,1,0h1c.33,0,.67,0,1,0h1c.33,0,.67,0,1,0h1c.33,0,.67,0,1,0h1c.33,0,.67,0,1,0h1c.33,0,.67,0,1,0h1c.33,0,.67,0,1,0h1c.33,0,.67,0,1,0h1c.33,0,.67,0,1,0h1c.33,0,.67,0,1,0h1c.33,0,.67,0,1,0h1c.33,0,.67,0,1,0h1c.33,0,.67,0,1,0h1c.33,0,.67,0,1,0h1c.33,0,.67,0,1,0h1c.33,0,.67,0,1,0h1c.33,0,.67,0,1,0h1c.33,0,.67,0,1,0h1c.33,0,.67,0,1,0h1c.33,0,.67,0,1,0h1c.33,0,.67,0,1,0h1c.33,0,.67,0,1,0h1c.33,0,.67,0,1,0h1c.33,0,.67,0,1,0h1c.33,0,.67,0,1,0h1c.33,0,.67,0,1,0h1c.33,0,.67,0,1,0h1c.33,0,.67,0,1,0h1c.33,0,.67,0,1,0h1c.33,0,.67,0,1,0h1c.33,0,.67,0,1,0h1c.33,0,.67,0,1,0h1c.33,0,.67,0,1,0h1c.33,0,.67,0,1,0h1c.33,0,.67,0,1,0h1c.33,0,.67,0,1,0h1c.33,0,.67,0,1,0h1c.33,0,.67,0,1,0h1c.33,0,.67,0,1,0h1c.33,0,.67,0,1,0h1c.33,0,.67,0,1,0h1c.33,0,.67,0,1,0h1c.33,0,.67,0,1,0h1c.33,0,.67,0,1,0h1c.33,0,.67,0,1,0h1c.33,0,.67,0,1,0h1c.33,0,.67,0,1,0h1c.33,0,.67,0,1,0h1c.33,0,.67,0,1,0h1c.33,0,.67,0,1,0h1c.33,0,.67,0,1,0h1c.33,0,.67,0,1,0h1c.33,0,.67,0,1,0h1c.33,0,.67,0,1,0h1c.33,0,.67,0,1,0h1c.33,0,.67,0,1,0h1c.33,0,.67,0,1,0h1c.33,0,.67,0,1,0h1c.33,0,.67,0,1,0h1c.33,0,.67,0,1,0h1c.33,0,.67,0,1,0h1c.33,0,.67,0,1,0h1c.33,0,.67,0,1,0h1c.33,0,.67,0,1,0h1c.33,0,.67,0,1,0h1c.33,0,.67,0,1,0h1c.33,0,.67,0,1,0h1c.33,0,.67,0,1,0h1c.33,0,.67,0,1,0h1c.33,0,.67,0,1,0h1c.33,0,.67,0,1,0h1c.33,0,.67,0,1,0h1c.33,0,.67,0,1,0h1c.33,0,.67,0,1,0h1c.33,0,.67,0,1,0h1c.33,0,.67,0,1,0h1c.33,0,.67,0,1,0h1c.33,0,.67,0,1,0h1c.33,0,.67,0,1,0h1c.33,0,.67,0,1,0h1c.33,0,.67,0,1,0h1c.33,0,.67,0,1,0h1c.33,0,.67,0,1,0h1c.33,0,.67,0,1,0h1c.33,0,.67,0,1,0h1c.33,0,.67,0,1,0h1c.33,0,.67,0,1,0h1c.33,0,.67,0,1,0h1c.33,0,.67,0,1,0h1c.33,0,.67,0,1,0h1c.33,0,.67,0,1,0h1c.33,0,.67,0,1,0h1c.33,0,.67,0,1,0h1c.33,0,.67,0,1,0h1c.33,0,.67,0,1,0h1c.33,0,.67,0,1,0h1c.33,0,.67,0,1,0h1c.33,0,.67,0,1,0h1c.33,0,.67,0,1,0h1c.33,0,.67,0,1,0h1c.16,0,.32.01.47,0,.09,0,.18-.04.26-.07.12-.03.24-.03.36-.03.17,0,.33,0,.5,0,.33,0,.66.01,1,.02s.66.01,1,.02.66.01,1,.02.66.01,1,.02.66.01,1,.02.66.01,1,.02.66,0,1,.01.66,0,1,.01.66,0,1,.01.66,0,1,.01.66,0,1,0,.66,0,1,0,.66,0,1,0,.66,0,1,0,.66,0,1,0,.66,0,1,0,.66,0,1,0,.66,0,1,0,.66,0,1,0,.66,0,1,0,.66,0,1-.01.66,0,1-.01.66-.01,1-.02.66-.01,1-.02.66-.01,1-.02.66-.02,1-.03.66-.02.99-.03.66-.02.99-.03.66-.02.99-.04.66-.03.99-.04.66-.03.99-.04.66-.03.99-.05.66-.03.99-.05.66-.04.99-.06.66-.04.99-.06.66-.04.99-.07.66-.05.99-.07.66-.05.99-.07.66-.05.99-.08c.14-.01.28-.02.42-.03,23.27-1.96,46.18-8.11,67.26-18.17,36.14-17.25,66.9-46.6,83.23-83.17,6.8-15.23,11.1-31.56,12.89-48.14,2.52-23.22.12-46.96-6.99-69.21-6.11-19.1-15.64-37.06-27.64-53.13-4.6-6.16-9.55-12.04-14.67-17.77Z" fill="url(#linear-gradient)" stroke-width="0"/>
  <path d="M1021.87,476.54h-299.69c-158.47,0-286.93,115.93-286.93,258.93v528.7c0,143,128.46,258.93,286.93,258.93h301.36c17.68,0,32.02-12.93,32.02-28.89v-199.76c0-15.96-14.33-28.89-32.02-28.89h-175.6c-20.92,0-41.1-6.98-56.66-19.6l-4.17-3.38c-11.96-9.78-19.7-20.55-24.72-29.96-5.71-10.7-8.34-22.53-8.34-34.41v-364.67c0-10.84,2.26-21.62,7.06-31.55,4.63-9.57,12.08-20.74,24.11-30.88,10.32-8.7,21.18-14.25,30.59-17.81,10.54-3.98,21.92-5.81,33.35-5.81h174.01c17.79,0,32.18-13.06,32.07-29.12-.45-64.37-.91-128.75-1.36-193.12-.11-15.88-14.41-28.71-32.01-28.71Z" fill="url(#linear-gradient-2)" stroke-width="0"/>
</svg>